<svg width="33" height="33" viewBox="0 0 33 33" fill="none" xmlns="http://www.w3.org/2000/svg">
<path d="M26.1661 23.1234C26.1605 23.1877 26.1531 23.2519 26.1419 23.3156C26.163 23.4516 26.1736 23.5889 26.1736 23.728C26.1736 26.5476 21.8236 28.8332 16.4576 28.8332C11.0922 28.8332 6.74219 26.5476 6.74219 23.728C6.74219 23.5889 6.75275 23.4516 6.77386 23.3156C6.76268 23.2519 6.75523 23.1877 6.74964 23.1234C6.74467 23.061 6.74219 22.9986 6.74219 22.9362V17.8979L10.2823 19.7872L15.1248 22.3722C15.9688 22.8227 16.9799 22.8239 17.8252 22.3759L22.6757 19.8059L26.1736 17.9528V22.9362C26.1736 22.9986 26.1711 23.061 26.1661 23.1234Z" fill="#006156"/>
<path d="M6.02853 22.3267C5.89376 22.6736 5.71489 23.0037 5.54658 23.3369C5.52733 23.3756 5.30312 23.9034 5.20748 24.1225C5.09879 24.3708 4.97395 24.6129 4.84788 24.8531C4.82117 24.9043 4.75409 24.9679 4.70751 24.966C4.64603 24.9642 4.55846 24.9174 4.53175 24.8643C4.1175 24.0357 3.70946 23.204 3.30328 22.371C3.13932 22.0366 3.47221 21.5056 3.46351 21.4969C3.59021 21.2105 3.70325 20.9166 3.84796 20.6396C3.97465 20.3975 4.04111 20.1573 4.03924 19.8796C4.02993 18.0646 4.03303 14.3777 4.03366 12.5626C4.03366 12.4821 4.04235 12.4022 4.04918 12.2812C4.44046 12.4734 4.80689 12.6437 5.15903 12.8377C5.21679 12.8696 5.23977 13.0075 5.23977 13.0967C5.24412 14.7539 5.23667 18.2829 5.25095 19.9395C5.25219 20.161 5.32734 20.3937 5.4174 20.5997C5.60434 21.0252 5.84034 21.4295 6.02356 21.8563C6.0807 21.9911 6.08194 22.1895 6.02853 22.3267Z" fill="#006156"/>
<path d="M30.4332 13.9427L17.5889 20.7481C16.8945 21.1162 16.0642 21.115 15.3711 20.745L2.56462 13.9096C1.88641 13.5477 1.89759 12.5681 2.58387 12.2218L15.3984 5.75339C16.0679 5.41583 16.8567 5.41521 17.5262 5.75276L30.4165 12.2524C31.1034 12.6 31.1133 13.582 30.4332 13.9427Z" fill="#006156"/>
</svg>
