<svg width="17" height="18" viewBox="0 0 17 18" fill="none" xmlns="http://www.w3.org/2000/svg">
<path fill-rule="evenodd" clip-rule="evenodd" d="M9.77898 14.5278C9.77898 15.327 8.96464 16.0027 8.00094 16.0027C7.03724 16.0027 6.22289 15.327 6.22289 14.5278V14.2246H9.77898V14.5278ZM15.5768 11.7409L13.9757 10.138V6.16583C13.9757 3.07115 11.7514 0.4432 8.80072 0.052031C7.09291 -0.174669 5.36821 0.346297 4.07468 1.48069C2.77315 2.62041 2.02727 4.26066 2.02727 5.98002L2.02638 10.138L0.426139 11.7418C0.00918833 12.1587 -0.114386 12.781 0.111426 13.326C0.338126 13.871 0.865316 14.2239 1.45563 14.2239H4.4454V14.5271C4.4454 16.3211 6.04031 17.78 8.00149 17.78C9.96267 17.78 11.5576 16.3211 11.5576 14.5271V14.2239H14.5465C15.1368 14.2239 15.664 13.8719 15.8898 13.326C16.1165 12.781 15.9929 12.1587 15.5768 11.7409Z" fill="#444854"/>
</svg>
