<svg width="17" height="13" viewBox="0 0 17 13" fill="none" xmlns="http://www.w3.org/2000/svg">
<path fill-rule="evenodd" clip-rule="evenodd" d="M0 1.06713C0 0.477772 0.473422 0 1.05742 0H15.1563C15.7403 0 16.2137 0.477772 16.2137 1.06713C16.2137 1.65649 15.7403 2.13427 15.1563 2.13427H1.05742C0.473422 2.13427 0 1.65649 0 1.06713Z" fill="#575A65"/>
<path fill-rule="evenodd" clip-rule="evenodd" d="M0 6.20141C0 5.61205 0.473422 5.13428 1.05742 5.13428H15.1563C15.7403 5.13428 16.2137 5.61205 16.2137 6.20141C16.2137 6.79077 15.7403 7.26854 15.1563 7.26854H1.05742C0.473422 7.26854 0 6.79077 0 6.20141Z" fill="#575A65"/>
<path fill-rule="evenodd" clip-rule="evenodd" d="M0 11.3357C0 10.7463 0.473422 10.2686 1.05742 10.2686H15.1563C15.7403 10.2686 16.2137 10.7463 16.2137 11.3357C16.2137 11.925 15.7403 12.4028 15.1563 12.4028H1.05742C0.473422 12.4028 0 11.925 0 11.3357Z" fill="#575A65"/>
</svg>
